<svg xmlns:xlink="http://www.w3.org/1999/xlink" xmlns="http://www.w3.org/2000/svg" width="250" height="135.38" viewBox="0 0 250 135.38"><linearGradient id="a" gradientUnits="userSpaceOnUse" x1="61.434" y1="23.335" x2="66.658" y2="51.809" gradientTransform="matrix(-1 0 0 1 250 0)"><stop offset="0" stop-color="#7C2E2C"/><stop offset="1" stop-color="#401215"/></linearGradient><path fill="url(#a)" d="M157.94 76.02l-33.79-18.29s18.63-5.4 30.65-12.02c12.02-6.62 23.16-15.5 32.92-16.72 9.75-1.22 34.31 1.57 52.94 8.71 0 0 8.36 3.66-2.96 2.61-11.32-1.05-30.13-.52-35.35 3.48-5.23 4.02-28.74 25.27-44.41 32.23z"/><linearGradient id="b" gradientUnits="userSpaceOnUse" x1="115.953" y1="113.844" x2="117.259" y2="106.791" gradientTransform="matrix(-1 0 0 1 250 0)"><stop offset="0" stop-color="#7C2E2C"/><stop offset="1" stop-color="#401215"/></linearGradient><path fill="url(#b)" d="M135.88 101.95s-.57 11.01.19 13.44c0 0 6.58 10.67 5.36 11.7-1.22 1.03-8.9-5.36-11.85-13.2-2.95-7.84-2.67-13.02-2.67-13.02s3.75-2.59 8.97 1.08z"/><linearGradient id="c" gradientUnits="userSpaceOnUse" x1="65.719" y1="77.588" x2="146.863" y2="77.588" gradientTransform="matrix(-1 0 0 1 250 0)"><stop offset="0" stop-color="#BA5B57"/><stop offset="1" stop-color="#7C2E2C"/></linearGradient><path fill="url(#c)" d="M182.45 47.29l1.83 16.46s-10.58 13.98-22.07 19.59c0 0-.91 18.03-20.12 22.07-19.2 4.05-44.15 4.44-38.01-9.01 6.14-13.45 11.54-21.72 44.45-27.08.01 0 23.08-6.88 33.92-22.03z"/><linearGradient id="d" gradientUnits="userSpaceOnUse" x1="108.278" y1="72.074" x2="102.531" y2="84.352" gradientTransform="matrix(-1 0 0 1 250 0)"><stop offset="0" stop-color="#BA5B57"/><stop offset="1" stop-color="#7C2E2C"/></linearGradient><path fill="url(#d)" d="M182.45 47.29l1.83 16.46s-10.58 13.98-22.07 19.59c0 0-.91 18.03-20.12 22.07-19.2 4.05-44.15 4.44-38.01-9.01 6.14-13.45 11.54-21.72 44.45-27.08.01 0 23.08-6.88 33.92-22.03z"/><linearGradient id="e" gradientUnits="userSpaceOnUse" x1="110.568" y1="101.232" x2="113.703" y2="93.743" gradientTransform="matrix(-1 0 0 1 250 0)"><stop offset="0" stop-color="#F4AD55"/><stop offset="1" stop-color="#EB7923"/></linearGradient><path fill="url(#e)" d="M127.29 95.53c17.59-3.83 20.2-10.97 27-13.23 6.79-2.26 7.92 1.04 7.92 1.04s-.91 18.03-20.12 22.07c-10.43 2.2-22.54 3.31-30.46 1.72.37-3.41 3.24-8.9 15.66-11.6z"/><defs><filter id="f" filterUnits="userSpaceOnUse" x="103.14" y="50.58" width="78.14" height="52.44"><feFlood result="back" flood-color="#fff" flood-opacity="1"/><feBlend in="SourceGraphic" in2="back"/></filter></defs><mask maskUnits="userSpaceOnUse" x="103.14" y="50.58" width="78.14" height="52.44" id="SVGID_6_"><g filter="url(#f)"><defs><filter id="g" filterUnits="userSpaceOnUse" x="103.14" y="50.58" width="78.14" height="52.44"><feFlood result="back" flood-color="#fff" flood-opacity="1"/><feBlend in="SourceGraphic" in2="back"/></filter></defs><linearGradient id="i" gradientUnits="userSpaceOnUse" x1="149.292" y1="96.644" x2="81.897" y2="60.247" gradientTransform="matrix(-1 0 0 1 250 0)"><stop offset="0" stop-color="#FFF"/><stop offset=".208" stop-color="#FCFCFC"/><stop offset=".343" stop-color="#F4F4F4"/><stop offset=".458" stop-color="#E5E5E5"/><stop offset=".56" stop-color="#D0D0D0"/><stop offset=".655" stop-color="#B4B4B4"/><stop offset=".744" stop-color="#939393"/><stop offset=".829" stop-color="#6B6B6B"/><stop offset=".91" stop-color="#3D3D3D"/><stop offset=".986" stop-color="#0A0A0A"/><stop offset="1"/></linearGradient><path mask="url(#h)" fill="url(#i)" d="M104.08 96.4c6.14-13.45 11.54-21.72 44.45-27.08 0 0 19.71-5.88 31.25-18.74l1.49 3.85s-10.45 15.67-35.88 26.12c0 0-37.62 5.22-40.75 22.46 0 0-.35-.12-.91-.32-.85-1.63-.83-3.7.35-6.29z"/></g></mask><linearGradient id="j" gradientUnits="userSpaceOnUse" x1="149.292" y1="96.644" x2="81.897" y2="60.247" gradientTransform="matrix(-1 0 0 1 250 0)"><stop offset="0" stop-color="#BA5B57"/><stop offset=".87" stop-color="#BA5B57"/><stop offset="1" stop-color="#BA5B57"/></linearGradient><path opacity=".6" fill="url(#j)" d="M104.08 96.4c6.14-13.45 11.54-21.72 44.45-27.08 0 0 19.71-5.88 31.25-18.74l1.49 3.85s-10.45 15.67-35.88 26.12c0 0-37.62 5.22-40.75 22.46 0 0-.35-.12-.91-.32-.85-1.63-.83-3.7.35-6.29z"/><linearGradient id="k" gradientUnits="userSpaceOnUse" x1="172.989" y1="68.157" x2="166.981" y2="37.593" gradientTransform="matrix(-1 0 0 1 250 0)"><stop offset="0" stop-color="#CE8783"/><stop offset="1" stop-color="#BA5B57"/></linearGradient><path fill="url(#k)" d="M152.89 67.84s-4.35 9.93-18.46 9.23c-14.1-.7-24.9 9.92-25.43 10.27l-.52.35S103.6 70.1 93.5 60.18C83.4 50.25 47.35 43.29 34.29 41.2c-13.06-2.09-18.98-.18-23.68.7 0 0-8.53 2.09-1.4-2.61 7.14-4.7 13.76-9.75 57.99-9.75 37.1 0 41.92 6.87 47.37 12.02 6.28 5.9 18.12 20.36 38.32 26.28z"/><path fill="#7C2E2C" d="M9.21 39.28c7.14-4.7 13.76-9.75 57.99-9.75 37.1 0 41.92 6.87 47.37 12.02 6.27 5.92 18.11 20.38 38.31 26.3 0 0-4.35 9.93-18.46 9.23-.53-.03-1.06-.03-1.59-.03-.05-.04-.11-.07-.15-.1-1.57-1.31-1.7-3.79-5.75-8.62-4.05-4.83-14.16-18.24-21.55-24.82-6.31-5.62-13.06-9.27-26.51-10.71-13.45-1.44-53.94-.78-65.96 8.62 0 0-.02.01-.02.02-.8.16-1.56.32-2.28.46 0-.01-8.53 2.08-1.4-2.62z"/><linearGradient id="l" gradientUnits="userSpaceOnUse" x1="28.521" y1="85.595" x2="57.316" y2="85.595" gradientTransform="matrix(-1 0 0 1 250 0)"><stop offset="0" stop-color="#EA613C"/><stop offset=".233" stop-color="#E95C38"/><stop offset=".558" stop-color="#E74B31"/><stop offset=".934" stop-color="#E42827"/><stop offset="1" stop-color="#E41E26"/></linearGradient><path fill="url(#l)" d="M207.12 70.45l-12.89-4.31-1.55 7.31 23.71 28.61 4 2.48s1.8 1.83.77-1.44c-1.03-3.26-16.24-21.03-14.04-32.65z"/><linearGradient id="m" gradientUnits="userSpaceOnUse" x1="61.653" y1="72.989" x2="52.249" y2="56.793" gradientTransform="matrix(-1 0 0 1 250 0)"><stop offset="0" stop-color="#BA5B57"/><stop offset="1" stop-color="#7C2E2C"/></linearGradient><path fill="url(#m)" d="M172.74 8.98s45.45 46.67 62.69 82.55c0 0 7.32 12.89-2.96 3.83-10.28-9.06-34.31-28.74-36.75-24.9-2.44 3.83 19.51 29.08 25.6 34.48 0 0 0 2.26-4.53-.87s-28.04-23.68-32.74-28.91c0 0-4.7-4.35-4.88-8.53-.17-4.18.17-20.9-2.96-31.87-3.14-10.97-9.75-26.99-11.49-29.78-1.73-2.8 2.28-1.93 8.02 4z"/><defs><filter id="n" filterUnits="userSpaceOnUse" x="164.32" y="3.45" width="73.64" height="95.13"><feFlood result="back" flood-color="#fff" flood-opacity="1"/><feBlend in="SourceGraphic" in2="back"/></filter></defs><mask maskUnits="userSpaceOnUse" x="164.32" y="3.45" width="73.64" height="95.13" id="SVGID_12_"><g filter="url(#n)"><defs><filter id="o" filterUnits="userSpaceOnUse" x="164.32" y="3.45" width="73.64" height="95.13"><feFlood result="back" flood-color="#fff" flood-opacity="1"/><feBlend in="SourceGraphic" in2="back"/></filter></defs><linearGradient id="q" gradientUnits="userSpaceOnUse" x1="15.459" y1="98.104" x2="80.765" y2="14.164" gradientTransform="matrix(-1 0 0 1 250 0)"><stop offset="0" stop-color="#FFF"/><stop offset=".208" stop-color="#FCFCFC"/><stop offset=".343" stop-color="#F4F4F4"/><stop offset=".458" stop-color="#E5E5E5"/><stop offset=".56" stop-color="#D0D0D0"/><stop offset=".655" stop-color="#B4B4B4"/><stop offset=".744" stop-color="#939393"/><stop offset=".829" stop-color="#6B6B6B"/><stop offset=".91" stop-color="#3D3D3D"/><stop offset=".986" stop-color="#0A0A0A"/><stop offset="1"/></linearGradient><path mask="url(#p)" fill="url(#q)" d="M172.74 8.98s45.45 46.67 62.69 82.55c0 0 5.2 9.16.67 6.61-.72-1.59-2.24-3.12-2.24-3.12-5.05-4.7-23.03-25.89-41.18-36.82-4.12-2.48 2-4.46-2.53-14.04-4.53-9.58-17.76-31.17-20.38-34.31-1.51-1.81-2.96-2.46-3.92-2.68-.48-1.01-.86-1.76-1.14-2.19-1.72-2.8 2.29-1.93 8.03 4z"/></g></mask><linearGradient id="r" gradientUnits="userSpaceOnUse" x1="15.459" y1="98.104" x2="80.765" y2="14.164" gradientTransform="matrix(-1 0 0 1 250 0)"><stop offset="0" stop-color="#CE8783"/><stop offset=".87" stop-color="#CE8783"/><stop offset="1" stop-color="#CE8783"/></linearGradient><path opacity=".6" fill="url(#r)" d="M172.74 8.98s45.45 46.67 62.69 82.55c0 0 5.2 9.16.67 6.61-.72-1.59-2.24-3.12-2.24-3.12-5.05-4.7-23.03-25.89-41.18-36.82-4.12-2.48 2-4.46-2.53-14.04-4.53-9.58-17.76-31.17-20.38-34.31-1.51-1.81-2.96-2.46-3.92-2.68-.48-1.01-.86-1.76-1.14-2.19-1.72-2.8 2.29-1.93 8.03 4z"/><ellipse transform="matrix(-.693 .721 -.721 -.693 412.023 -29.138)" fill="#5D0F1A" cx="212.21" cy="73.1" rx="1.22" ry="3.51"/><linearGradient id="s" gradientUnits="userSpaceOnUse" x1="143.704" y1="116.393" x2="151.411" y2="112.344" gradientTransform="matrix(-1 0 0 1 250 0)"><stop offset="0" stop-color="#BA5B57"/><stop offset="1" stop-color="#7C2E2C"/></linearGradient><path fill="url(#s)" d="M109.6 106.66s-6.09 7.94-6.96 10.72c0 0-.78 14.37-2.61 14.54-1.83.17-4.88-10.88-2.53-20.2 2.35-9.32 6.01-14.02 6.01-14.02s9.29-1.53 6.09 8.96z"/><defs><filter id="t" filterUnits="userSpaceOnUse" x="99.68" y="97.71" width="10.59" height="34.22"><feFlood result="back" flood-color="#fff" flood-opacity="1"/><feBlend in="SourceGraphic" in2="back"/></filter></defs><mask maskUnits="userSpaceOnUse" x="99.68" y="97.71" width="10.59" height="34.22" id="SVGID_16_"><g filter="url(#t)"><defs><filter id="u" filterUnits="userSpaceOnUse" x="99.68" y="97.71" width="10.59" height="34.22"><feFlood result="back" flood-color="#fff" flood-opacity="1"/><feBlend in="SourceGraphic" in2="back"/></filter></defs><linearGradient id="w" gradientUnits="userSpaceOnUse" x1="142.138" y1="101.842" x2="149.278" y2="124.308" gradientTransform="matrix(-1 0 0 1 250 0)"><stop offset="0" stop-color="#FFF"/><stop offset=".208" stop-color="#FCFCFC"/><stop offset=".343" stop-color="#F4F4F4"/><stop offset=".458" stop-color="#E5E5E5"/><stop offset=".56" stop-color="#D0D0D0"/><stop offset=".655" stop-color="#B4B4B4"/><stop offset=".744" stop-color="#939393"/><stop offset=".829" stop-color="#6B6B6B"/><stop offset=".91" stop-color="#3D3D3D"/><stop offset=".986" stop-color="#0A0A0A"/><stop offset="1"/></linearGradient><path mask="url(#v)" fill="url(#w)" d="M106.89 104.3c2.29-4.07-.19-5.91-.99-6.59 2.5.35 5.8 2.04 3.7 8.95 0 0-6.09 7.94-6.96 10.72 0 0-.78 14.37-2.61 14.54-.11.01-.23-.02-.35-.09 1.08-2.09 1.25-10.83.71-14.87-.23-1.7.88-3.68.88-3.68l5.62-8.98z"/></g></mask><linearGradient id="x" gradientUnits="userSpaceOnUse" x1="142.138" y1="101.842" x2="149.278" y2="124.308" gradientTransform="matrix(-1 0 0 1 250 0)"><stop offset="0" stop-color="#CE8783"/><stop offset=".87" stop-color="#CE8783"/><stop offset="1" stop-color="#CE8783"/></linearGradient><path opacity=".6" fill="url(#x)" d="M106.89 104.3c2.29-4.07-.19-5.91-.99-6.59 2.5.35 5.8 2.04 3.7 8.95 0 0-6.09 7.94-6.96 10.72 0 0-.78 14.37-2.61 14.54-.11.01-.23-.02-.35-.09 1.08-2.09 1.25-10.83.71-14.87-.23-1.7.88-3.68.88-3.68l5.62-8.98z"/><defs><filter id="y" filterUnits="userSpaceOnUse" x="84.14" y="30.14" width="68.75" height="45.83"><feFlood result="back" flood-color="#fff" flood-opacity="1"/><feBlend in="SourceGraphic" in2="back"/></filter></defs><mask maskUnits="userSpaceOnUse" x="84.14" y="30.14" width="68.75" height="45.83" id="SVGID_19_"><g filter="url(#y)"><defs><filter id="z" filterUnits="userSpaceOnUse" x="84.14" y="30.14" width="68.75" height="45.83"><feFlood result="back" flood-color="#fff" flood-opacity="1"/><feBlend in="SourceGraphic" in2="back"/></filter></defs><linearGradient id="B" gradientUnits="userSpaceOnUse" x1="103.467" y1="71.422" x2="160.153" y2="30.41" gradientTransform="matrix(-1 0 0 1 250 0)"><stop offset="0" stop-color="#FFF"/><stop offset=".208" stop-color="#FCFCFC"/><stop offset=".343" stop-color="#F4F4F4"/><stop offset=".458" stop-color="#E5E5E5"/><stop offset=".56" stop-color="#D0D0D0"/><stop offset=".655" stop-color="#B4B4B4"/><stop offset=".744" stop-color="#939393"/><stop offset=".829" stop-color="#6B6B6B"/><stop offset=".91" stop-color="#3D3D3D"/><stop offset=".986" stop-color="#0A0A0A"/><stop offset="1"/></linearGradient><path mask="url(#A)" fill="url(#B)" d="M84.14 30.14c21.88 1.79 25.96 7.18 30.43 11.41 6.27 5.92 18.11 20.38 38.31 26.3 0 0-2.49 5.66-9.78 8.13-7.5-2-12.75-10.93-16.17-14.84-3.66-4.18-17.76-20.64-24.55-24.03-4.31-2.17-10.64-4.96-18.24-6.97z"/></g></mask><linearGradient id="C" gradientUnits="userSpaceOnUse" x1="103.467" y1="71.422" x2="160.153" y2="30.41" gradientTransform="matrix(-1 0 0 1 250 0)"><stop offset="0" stop-color="#BA5B57"/><stop offset=".87" stop-color="#BA5B57"/><stop offset="1" stop-color="#BA5B57"/></linearGradient><path opacity=".5" fill="url(#C)" d="M84.14 30.14c21.88 1.79 25.96 7.18 30.43 11.41 6.27 5.92 18.11 20.38 38.31 26.3 0 0-2.49 5.66-9.78 8.13-7.5-2-12.75-10.93-16.17-14.84-3.66-4.18-17.76-20.64-24.55-24.03-4.31-2.17-10.64-4.96-18.24-6.97z"/><defs><filter id="D" filterUnits="userSpaceOnUse" x="116.76" y="89.73" width="43.45" height="18.15"><feFlood result="back" flood-color="#fff" flood-opacity="1"/><feBlend in="SourceGraphic" in2="back"/></filter></defs><mask maskUnits="userSpaceOnUse" x="116.76" y="89.73" width="43.45" height="18.15" id="SVGID_22_"><g filter="url(#D)"><defs><filter id="E" filterUnits="userSpaceOnUse" x="116.76" y="89.73" width="43.45" height="18.15"><feFlood result="back" flood-color="#fff" flood-opacity="1"/><feBlend in="SourceGraphic" in2="back"/></filter></defs><linearGradient id="G" gradientUnits="userSpaceOnUse" x1="127.554" y1="100.645" x2="109.529" y2="98.816" gradientTransform="matrix(-1 0 0 1 250 0)"><stop offset="0" stop-color="#FFF"/><stop offset=".146" stop-color="#FCFCFC"/><stop offset=".275" stop-color="#F1F1F1"/><stop offset=".396" stop-color="#DFDFDF"/><stop offset=".514" stop-color="#C5C5C5"/><stop offset=".628" stop-color="#A5A5A5"/><stop offset=".741" stop-color="#7D7D7D"/><stop offset=".852" stop-color="#4D4D4D"/><stop offset=".958" stop-color="#171717"/><stop offset="1"/></linearGradient><path mask="url(#F)" fill="url(#G)" d="M124.72 100.71c3.92-.39 10.84-.65 16.19-4.18 5.36-3.53 12.02-6.66 15.67-6.79 2.01-.07 3.07.65 3.62 1.31-2.33 5.42-7.34 12.09-18.12 14.37-8.33 1.76-17.73 2.82-25.22 2.36-.97-3.22 4.5-6.73 7.86-7.07z"/></g></mask><linearGradient id="H" gradientUnits="userSpaceOnUse" x1="127.554" y1="100.645" x2="109.529" y2="98.816" gradientTransform="matrix(-1 0 0 1 250 0)"><stop offset="0" stop-color="#F7F8F8"/><stop offset=".939" stop-color="#F7F8F8"/><stop offset="1" stop-color="#F7F8F8"/></linearGradient><path opacity=".4" fill="url(#H)" d="M124.72 100.71c3.92-.39 10.84-.65 16.19-4.18 5.36-3.53 12.02-6.66 15.67-6.79 2.01-.07 3.07.65 3.62 1.31-2.33 5.42-7.34 12.09-18.12 14.37-8.33 1.76-17.73 2.82-25.22 2.36-.97-3.22 4.5-6.73 7.86-7.07z"/><defs><filter id="I" filterUnits="userSpaceOnUse" x="8.92" y="37.89" width="109.24" height="49.8"><feFlood result="back" flood-color="#fff" flood-opacity="1"/><feBlend in="SourceGraphic" in2="back"/></filter></defs><mask maskUnits="userSpaceOnUse" x="8.92" y="37.89" width="109.24" height="49.8" id="SVGID_25_"><g filter="url(#I)"><defs><filter id="J" filterUnits="userSpaceOnUse" x="8.92" y="37.89" width="109.24" height="49.8"><feFlood result="back" flood-color="#fff" flood-opacity="1"/><feBlend in="SourceGraphic" in2="back"/></filter></defs><linearGradient id="L" gradientUnits="userSpaceOnUse" x1="154.328" y1="78.275" x2="203.962" y2="42.487" gradientTransform="matrix(-1 0 0 1 250 0)"><stop offset="0" stop-color="#FFF"/><stop offset=".146" stop-color="#FCFCFC"/><stop offset=".275" stop-color="#F1F1F1"/><stop offset=".396" stop-color="#DFDFDF"/><stop offset=".514" stop-color="#C5C5C5"/><stop offset=".628" stop-color="#A5A5A5"/><stop offset=".741" stop-color="#7D7D7D"/><stop offset=".852" stop-color="#4D4D4D"/><stop offset=".958" stop-color="#171717"/><stop offset="1"/></linearGradient><path mask="url(#K)" fill="url(#L)" d="M8.92 42.22c.75-.67 1.76-1.36 3.08-2.07 13.93-7.49 67.92 5.57 82.55 11.49 10.54 4.27 19.45 20.56 23.61 29.33-5.42 2.83-8.87 6.18-9.16 6.37l-.52.35S103.6 70.1 93.5 60.18C83.4 50.25 47.35 43.29 34.29 41.2c-13.06-2.09-18.98-.18-23.68.7 0-.01-.79.18-1.69.32z"/></g></mask><linearGradient id="M" gradientUnits="userSpaceOnUse" x1="154.328" y1="78.275" x2="203.962" y2="42.487" gradientTransform="matrix(-1 0 0 1 250 0)"><stop offset="0" stop-color="#F7F8F8"/><stop offset=".939" stop-color="#F7F8F8"/><stop offset="1" stop-color="#F7F8F8"/></linearGradient><path opacity=".25" fill="url(#M)" d="M8.92 42.22c.75-.67 1.76-1.36 3.08-2.07 13.93-7.49 67.92 5.57 82.55 11.49 10.54 4.27 19.45 20.56 23.61 29.33-5.42 2.83-8.87 6.18-9.16 6.37l-.52.35S103.6 70.1 93.5 60.18C83.4 50.25 47.35 43.29 34.29 41.2c-13.06-2.09-18.98-.18-23.68.7 0-.01-.79.18-1.69.32z"/><linearGradient id="N" gradientUnits="userSpaceOnUse" x1="55.087" y1="88.862" x2="47.425" y2="78.761" gradientTransform="matrix(-1 0 0 1 250 0)"><stop offset="0" stop-color="#BA5B57"/><stop offset="1" stop-color="#7C2E2C"/></linearGradient><path fill="url(#N)" d="M179.03 58.74l.15.04s3.27 14.37 41.77 46.81c-.49.29-1.6.24-4.15-1.53-4.53-3.13-28.04-23.68-32.74-28.91 0 0-4.7-4.35-4.88-8.53-.05-1.42-.05-4.28-.15-7.88z"/><ellipse fill="#FFF" cx="189.94" cy="59.58" rx="4.48" ry="7.9"/><ellipse fill="#231815" cx="191.55" cy="59.58" rx="2.88" ry="5.07"/></svg>