<svg xmlns:xlink="http://www.w3.org/1999/xlink" xmlns="http://www.w3.org/2000/svg" class="c-icon" width="48"  height="48" ><defs><symbol id="icon-theme-gallery" viewBox="0 0 48 48">
      
      <desc>theme gallery</desc>
        <g>
	<path class="st1" d="M41,8.2c-4.5-4.5-10.5-7.1-16.7-7.1C9.3,1.1,1.2,13,1.2,24.2c0,16.1,14.4,23.1,21.7,23.1
		c11.4,0,12-8.9,12-10.7c0-2.7-1-4.2-1.7-5.3L33,31c-0.5-0.9-0.8-1.4-0.8-2.7c0-0.2,0.4-1.8,1.8-1.8c0.9,0,1.5,0.2,2.3,0.4l0.3,0.1
		c1.2,0.4,2.5,0.9,4.2,0.9c2.7,0,6.5-2.3,6.5-6.5C47.4,17.2,45,12.1,41,8.2z M40.9,25.9c-1.4,0-2.5-0.4-3.6-0.8L36.9,25
		c-0.9-0.3-1.7-0.5-2.9-0.5c-2.7,0-3.8,2.7-3.8,3.8c0,1.9,0.5,2.8,1.1,3.7l0.2,0.4c0.7,1,1.4,2.1,1.4,4.2c0,2-0.7,8.7-10,8.7
		c-6.7,0-19.7-6.4-19.7-21.1C3.2,14,10.6,3.1,24.3,3.1c12.7,0,21.1,11,21.1,18.3C45.4,24.6,42.2,25.9,40.9,25.9z"></path>
	<circle class="st1" cx="21.5" cy="35.2" r="4.5"></circle>
	<circle class="st1" cx="31.2" cy="15.9" r="4.5"></circle>
	<circle class="st1" cx="18.8" cy="14.5" r="4.5"></circle>
	<path class="st1" d="M13.2,21.1c-2.5,0-4.5,2-4.5,4.5c0,2.5,2,4.5,4.5,4.5s4.5-2,4.5-4.5C17.7,23.1,15.7,21.1,13.2,21.1z"></path>
</g>
   </symbol></defs><use xmlns:xlink="http://www.w3.org/1999/xlink" xlink:href="#icon-theme-gallery" fill="#8B7ADF"></use></svg>