<svg xmlns:xlink="http://www.w3.org/1999/xlink" xmlns="http://www.w3.org/2000/svg" class="c-logo__svg" width="157.1"  height="63.9" ><defs><symbol id="icon-logo-duo" viewBox="0 0 157.1 63.9">
      
      <desc>The Wufoo by SurveyMonkey Logo</desc>
        <path d="M14.3,40.8L0,8.5l9.7-1.9l4.4,12.1c1.4,3.8,2.8,8.1,4,11.5h0.1c-0.2-3.9-0.3-8.1-0.3-12.4L17.6,5.2l9.7-1.9
      l4.6,12.6c1.4,3.8,2.5,7.2,3.7,10.9h0.1c-0.2-3.9-0.4-8-0.6-12.1L34.7,1.8L43.8,0l-1.8,35.3l-9.9,1.9l-4.8-12.7
      c-1.1-2.9-2.1-5.9-3.4-9.8h-0.1c0.2,4.1,0.4,7.4,0.4,10.4v13.7L14.3,40.8z"></path>
	    <path d="M53.7,9.9L51,29.3c-0.7,5.1,0.6,8.3,4.2,8.8s5.8-1.9,6.5-7.3l2.7-19.3l9.1,1.3l-2.6,18.8
	      c-1.5,10.5-7.5,15-17,13.7c-9.3-1.3-13.5-7.1-12-18l2.6-18.6L53.7,9.9z"></path>
	    <polygon points="71.8,4.9 93.8,3 94.4,10.6 81.7,11.6 82.2,17.9 94.2,16.9 94.8,24.3 82.8,25.3 83.9,38.3 74.7,39.1 "></polygon>
	    <path d="M110.9,43.6c-10.6,0-16.5-8-16.5-17.5c0-10,6.5-17.9,17.1-17.9c11.1,0,16.7,8.2,16.7,17.4
	      C128.1,36.6,121.5,43.6,110.9,43.6L110.9,43.6z M111.4,36.3c4.4,0,7-4.3,7-10.5c0-5.9-2.6-10.4-7.1-10.4s-7.1,4.5-7.1,10.4
	      c-0.1,6.2,2.7,10.5,7.1,10.5L111.4,36.3z"></path>
	    <path d="M139.9,35.6c-10.6,0-16.5-8-16.5-17.5c0-10,6.5-17.9,17.1-17.9c11.1,0,16.7,8.2,16.7,17.4
	      C157.1,28.6,150.5,35.6,139.9,35.6L139.9,35.6z M140.4,28.3c4.4,0,7-4.3,7-10.5c0-5.9-2.6-10.4-7.1-10.4s-7.1,4.5-7.1,10.5
	      c-0.1,6.2,2.7,10.5,7.1,10.5L140.4,28.3z"></path>
	    <path fill="#C7C0B4" d="M43.7,55.1c0.3-0.9,1.2-1.4,2.1-1.4c1.9,0,2.9,1.6,2.9,3.7s-1.2,3.8-3,3.8c-1,0.1-1.8-0.5-2.1-1.4L43.4,61H42
	      V50.8h1.7L43.7,55.1z M43.7,57.9c0,1.4,0.8,1.9,1.5,1.9c1,0,1.7-0.8,1.7-2.4s-0.6-2.3-1.7-2.3c-0.8,0-1.6,0.6-1.6,2L43.7,57.9z" data-darkreader-inline-fill="" style="--darkreader-inline-fill:#c5bdb1;"></path>
	    <path fill="#C7C0B4" d="M54.7,53.9h1.7l-2.6,7.4c-0.7,2-1.6,2.7-2.9,2.7c-0.4,0-0.9-0.1-1.3-0.3l0.3-1.3c0.2,0.2,0.5,0.3,0.8,0.3
	      c0.6,0,0.9-0.3,1.3-1.3l-2.6-7.4h1.8l1.7,5.4l0,0L54.7,53.9z" data-darkreader-inline-fill="" style="--darkreader-inline-fill:#c5bdb1;"></path>
	    <path fill="#C7C0B4" d="M60.4,58.6l1.6-0.6c0.2,1.1,1.1,1.8,2.2,1.8c1,0,1.7-0.4,1.7-1.3c0-2.1-5.1-0.7-5.1-4.2c0-1.8,1.5-2.8,3.4-2.8
	      s3.1,0.8,3.4,2.5L66,54.3c-0.1-0.9-0.9-1.5-1.8-1.5c-1,0-1.6,0.5-1.6,1.3c0,2.1,5.1,0.6,5.1,4.2c0,1.8-1.6,2.8-3.5,2.8
	      S60.7,60.2,60.4,58.6z" data-darkreader-inline-fill="" style="--darkreader-inline-fill:#c5bdb1;"></path>
	    <path fill="#C7C0B4" d="M73.6,59.7c-0.3,1-1.2,1.6-2.2,1.5c-1.2,0.1-2.2-0.8-2.2-2c0-0.1,0-0.2,0-0.3v-5h1.7v4.6c0,0.8,0.4,1.3,1.1,1.3
	      s1.5-0.6,1.5-1.9v-4h1.8V61h-1.5L73.6,59.7z" data-darkreader-inline-fill="" style="--darkreader-inline-fill:#c5bdb1;"></path>
	    <path fill="#C7C0B4" d="M81.6,55.5c-0.2-0.1-0.5-0.1-0.7-0.1c-1,0-1.8,0.7-1.8,2.1V61h-1.7v-7.1h1.5l0.2,1.7c0.2-1.2,1.3-2,2.6-1.9
	      c0,0,0.1,0,0.1,0L81.6,55.5z" data-darkreader-inline-fill="" style="--darkreader-inline-fill:#c5bdb1;"></path>
	    <path fill="#C7C0B4" d="M85.8,59.1l1.7-5.2h1.7L86.7,61h-1.7l-2.6-7.1h1.8L85.8,59.1L85.8,59.1z" data-darkreader-inline-fill="" style="--darkreader-inline-fill:#c5bdb1;"></path>
	    <path fill="#C7C0B4" d="M94.7,58.7l1.4,0.5c-0.4,1.3-1.6,2.1-2.9,2c-2,0-3.4-1.3-3.4-3.7s1.3-3.8,3.4-3.8c1.6-0.1,2.9,1.1,2.9,2.7
	      c0,0.1,0,0.3,0,0.4c0,0.3,0,0.6-0.1,0.9h-4.5c0,1.3,0.7,2.1,1.7,2.1C94,59.9,94.6,59.4,94.7,58.7z M94.5,56.7c0-0.1,0-0.2,0-0.3
	      c0-0.7-0.5-1.3-1.2-1.4c0,0,0,0,0,0c-0.9,0-1.5,0.7-1.6,1.8L94.5,56.7z" data-darkreader-inline-fill="" style="--darkreader-inline-fill:#c5bdb1;"></path>
	    <path fill="#C7C0B4" d="M102.2,53.9h1.7l-2.6,7.4c-0.7,2-1.6,2.7-2.9,2.7c-0.4,0-0.9-0.1-1.3-0.3l0.3-1.3c0.2,0.2,0.5,0.3,0.8,0.3
	      c0.6,0,0.9-0.3,1.3-1.3L97,53.9h1.8l1.7,5.4l0,0L102.2,53.9z" data-darkreader-inline-fill="" style="--darkreader-inline-fill:#c5bdb1;"></path>
	    <path fill="#C7C0B4" d="M110.4,58.8h-1.1l-2.2-4.7l0,0V61h-1.7v-9.5h2l2.6,5.3l0,0l2.6-5.3h1.9V61h-1.7v-6.8l0,0L110.4,58.8z" data-darkreader-inline-fill="" style="--darkreader-inline-fill:#c5bdb1;"></path>
	    <path fill="#C7C0B4" d="M119.5,61.2c-2,0-3.4-1.3-3.4-3.7s1.4-3.7,3.4-3.7s3.4,1.3,3.4,3.7S121.5,61.2,119.5,61.2z M119.5,55
	      c-1.1,0-1.6,0.8-1.6,2.4s0.5,2.4,1.6,2.4s1.6-0.8,1.6-2.4S120.6,55,119.5,55z" data-darkreader-inline-fill="" style="--darkreader-inline-fill:#c5bdb1;"></path>
	    <path fill="#C7C0B4" d="M126.2,55.2c0.4-1,1.3-1.6,2.3-1.5c1.2-0.1,2.1,0.8,2.2,2c0,0.1,0,0.2,0,0.3v5h-1.8v-4.5c0-0.8-0.4-1.3-1.2-1.3
	      s-1.5,0.5-1.5,1.8v4h-1.7v-7.1h1.4L126.2,55.2z" data-darkreader-inline-fill="" style="--darkreader-inline-fill:#c5bdb1;"></path>
	    <path fill="#C7C0B4" d="M139.3,61h-2l-2.3-3.1h-0.5V61h-1.8V50.8h1.7v5.8h0.6l2.1-2.7h2l-2.6,3.3L139.3,61z" data-darkreader-inline-fill="" style="--darkreader-inline-fill:#c5bdb1;"></path>
	    <path fill="#C7C0B4" d="M144.6,58.7l1.4,0.5c-0.4,1.3-1.6,2.1-2.9,2c-2,0-3.4-1.3-3.4-3.7s1.3-3.8,3.4-3.8c1.6-0.1,2.9,1.1,2.9,2.7
	      c0,0.1,0,0.3,0,0.4c0,0.3,0,0.6-0.1,0.9h-4.5c0,1.3,0.7,2.1,1.7,2.1C143.9,59.9,144.5,59.4,144.6,58.7z M144.4,56.7
	      c0-0.1,0-0.2,0-0.3c0-0.7-0.5-1.3-1.2-1.4c0,0,0,0,0,0c-0.9,0-1.5,0.7-1.6,1.8L144.4,56.7z" data-darkreader-inline-fill="" style="--darkreader-inline-fill:#c5bdb1;"></path>
	    <path fill="#C7C0B4" d="M152,53.9h1.7l-2.6,7.4c-0.7,2-1.5,2.7-2.9,2.7c-0.4,0-0.9-0.1-1.3-0.3l0.3-1.3c0.2,0.2,0.5,0.3,0.8,0.3
	      c0.6,0,0.9-0.3,1.3-1.3l-2.6-7.4h1.8l1.7,5.4l0,0L152,53.9z" data-darkreader-inline-fill="" style="--darkreader-inline-fill:#c5bdb1;"></path>
   </symbol></defs><use xmlns:xlink="http://www.w3.org/1999/xlink" xlink:href="#icon-logo-duo" fill="#E37067"></use></svg>