<svg xmlns:xlink="http://www.w3.org/1999/xlink" xmlns="http://www.w3.org/2000/svg" class="c-icon" width="64"  height="64" ><defs><symbol id="icon-dragdrop-lg" viewBox="0 0 64 64">
      
      <desc>A hand dragging an item between two others</desc>
        <path d="M4.5,15.7h42c1.7,0,3-1.3,3-3V3.2c0-1.7-1.3-3-3-3h-42c-1.7,0-3,1.3-3,3v9.5C1.5,14.3,2.8,15.7,4.5,15.7z
		 M3.5,3.2c0-0.6,0.4-1,1-1h42c0.6,0,1,0.4,1,1v9.5c0,0.6-0.4,1-1,1h-42c-0.6,0-1-0.4-1-1V3.2z M59.5,18.3h-42c-1.7,0-3,1.3-3,3v9.5
		c0,1.7,1.3,3,3,3h21.1c0.2,0.9,0.9,1.9,1.4,2.7c0,0.1,1,1.7,2.4,4.3c0.5,0.9,0.8,1.7,1.1,2.3c0.2,0.4,0.3,1.4,0.3,1.9
		c0,0.2,0,0.4,0.1,0.5l0.2,1.1c0.1,0.5,0.5,0.8,1,0.8l9.8,0.1h0c0.4,0,0.8-0.3,0.9-0.6l0.1-0.3c0,0,0.1-0.2,0.1-0.5
		c0.1-0.6,0.3-1.8,0.6-2.6c0.7-2.1,1.2-3.8,1.4-4.9c0.3-2,0.5-2.8,0.3-4.8h1.3c1.7,0,3-1.3,3-3v-9.5C62.5,19.7,61.2,18.3,59.5,18.3z
		 M55.9,38.3c-0.2,1-0.6,2.6-1.3,4.6c-0.3,0.8-0.5,2-0.6,2.7l-8.1-0.1l0-0.2c0-0.1,0-0.2,0-0.3c-0.1-0.9-0.2-1.9-0.5-2.5
		c-0.3-0.6-0.6-1.4-1.1-2.4c-1.3-2.7-2.3-4.3-2.5-4.5c-0.7-1-1.1-1.9-1.2-2.2c0.1-0.3,0.5-0.4,0.7-0.4c0.2,0,0.4,0,0.6,0.1
		c0.4,0.1,0.8,0.4,1.2,0.9c0.3,0.3,0.7,0.4,1.1,0.3c0.4-0.1,0.7-0.5,0.7-0.9v-8.5c0-0.7,0.8-0.7,1-0.7c0.4,0,1.1,0.1,1.1,0.7v8.5
		c0,0.6,0.4,1,1,1s1-0.4,1-1V29c0.3,0,0.5,0.1,0.7,0.3c0.1,0.1,0.1,0.2,0.2,0.3v3.5c0,0.6,0.4,1,1,1s1-0.4,1-1v-3c0.1,0,0.2,0,0.3,0
		c0.2,0,0.5,0,0.8,0.6V34c0,0.6,0.4,1,1,1s1-0.4,1-1v-2.5c0.1,0,0.2,0,0.3,0c0.8,0,1,1.8,1.1,2.3C56.4,35.6,56.3,36.2,55.9,38.3z
		 M60.5,30.8c0,0.6-0.4,1-1,1h-1.6c-0.6-2-2-2.4-2.7-2.4c-0.2,0-0.5,0-0.7,0c-0.5-0.8-1.3-1.3-2.3-1.4c-0.3,0-0.6,0-0.9,0.1
		c-0.1-0.1-0.1-0.2-0.2-0.3c-0.5-0.6-1.3-0.9-2.2-0.9v-2.4c0-1.6-1.3-2.7-3.1-2.7c-1.7,0-3,1.1-3,2.7v6.5c-0.2-0.1-0.4-0.1-0.6-0.2
		c-0.4-0.1-0.7-0.1-1-0.1c-1.1,0-1.8,0.4-2.2,1H17.5c-0.6,0-1-0.4-1-1v-9.5c0-0.6,0.4-1,1-1h42c0.6,0,1,0.4,1,1V30.8z M46.5,48.3
		h-42c-1.7,0-3,1.3-3,3v9.5c0,1.7,1.3,3,3,3h42c1.7,0,3-1.3,3-3v-9.5C49.5,49.7,48.2,48.3,46.5,48.3z M47.5,60.8c0,0.6-0.4,1-1,1
		h-42c-0.6,0-1-0.4-1-1v-9.5c0-0.6,0.4-1,1-1h42c0.6,0,1,0.4,1,1V60.8z"></path>
   </symbol></defs><use xmlns:xlink="http://www.w3.org/1999/xlink" xlink:href="#icon-dragdrop-lg" fill="#8B7ADF"></use></svg>