<svg xmlns:xlink="http://www.w3.org/1999/xlink" xmlns="http://www.w3.org/2000/svg" class="c-icon" width="36"  height="36" ><defs><symbol id="icon-payment" viewBox="0 0 32 32">
      
      <desc>payment</desc>
        <path class="cls-1" d="M30.65,27.67H1.13a1,1,0,0,1-1-1.05V5.84a1,1,0,0,1,1-1H30.65a1,1,0,0,1,1.05,1V26.62A1,1,0,0,1,30.65,27.67ZM1.58,26.17H30.2V6.29H1.58Z"></path><rect class="cls-1" x="0.83" y="8.92" width="30.11" height="3.97"></rect><path class="cls-1" d="M23.14,21.26H3.78A.75.75,0,0,1,3,20.51V16.86a.74.74,0,0,1,.75-.75H23.14a.75.75,0,0,1,.75.75v3.65A.76.76,0,0,1,23.14,21.26ZM4.53,19.76H22.39V17.61H4.53Z"></path><path class="cls-1" d="M19.39,21.26a.76.76,0,0,1-.75-.75V17.18a.75.75,0,0,1,1.5,0v3.33A.75.75,0,0,1,19.39,21.26Z"></path>
   </symbol></defs><use xmlns:xlink="http://www.w3.org/1999/xlink" xlink:href="#icon-payment" fill="#8B7ADF"></use></svg>